<svg width="367" height="58" viewBox="0 0 367 58" fill="none" xmlns="http://www.w3.org/2000/svg">
<g filter="url(#filter0_d_1007_7278)">
<g clip-path="url(#clip0_1007_7278)">
<rect x="2" y="2" width="464" height="50" fill="#F1F3F4"/>
<circle cx="31.7918" cy="25.7923" r="4.95833" stroke="#5F6368" stroke-width="2"/>
<path d="M38.1665 32.166L36.0415 30.041" stroke="#5F6368" stroke-width="2" stroke-linecap="round"/>
<path d="M57.2305 19.5H58.8652V31.1543L58.7246 33H57.2305V19.5ZM65.29 28.166V28.3506C65.29 29.042 65.208 29.6836 65.0439 30.2754C64.8799 30.8613 64.6396 31.3711 64.3232 31.8047C64.0068 32.2383 63.6201 32.5752 63.1631 32.8154C62.7061 33.0557 62.1816 33.1758 61.5898 33.1758C60.9863 33.1758 60.4561 33.0732 59.999 32.8682C59.5479 32.6572 59.167 32.3555 58.8564 31.9629C58.5459 31.5703 58.2969 31.0957 58.1094 30.5391C57.9277 29.9824 57.8018 29.3555 57.7314 28.6582V27.8496C57.8018 27.1465 57.9277 26.5166 58.1094 25.96C58.2969 25.4033 58.5459 24.9287 58.8564 24.5361C59.167 24.1377 59.5479 23.8359 59.999 23.6309C60.4502 23.4199 60.9746 23.3145 61.5723 23.3145C62.1699 23.3145 62.7002 23.4316 63.1631 23.666C63.626 23.8945 64.0127 24.2227 64.3232 24.6504C64.6396 25.0781 64.8799 25.5908 65.0439 26.1885C65.208 26.7803 65.29 27.4395 65.29 28.166ZM63.6553 28.3506V28.166C63.6553 27.6914 63.6113 27.2461 63.5234 26.8301C63.4355 26.4082 63.2949 26.0391 63.1016 25.7227C62.9082 25.4004 62.6533 25.1484 62.3369 24.9668C62.0205 24.7793 61.6309 24.6855 61.168 24.6855C60.7578 24.6855 60.4004 24.7559 60.0957 24.8965C59.7969 25.0371 59.542 25.2275 59.3311 25.4678C59.1201 25.7021 58.9473 25.9717 58.8125 26.2764C58.6836 26.5752 58.5869 26.8857 58.5225 27.208V29.3262C58.6162 29.7363 58.7686 30.1318 58.9795 30.5127C59.1963 30.8877 59.4834 31.1953 59.8408 31.4355C60.2041 31.6758 60.6523 31.7959 61.1855 31.7959C61.625 31.7959 62 31.708 62.3105 31.5322C62.627 31.3506 62.8818 31.1016 63.0752 30.7852C63.2744 30.4688 63.4209 30.1025 63.5146 29.6865C63.6084 29.2705 63.6553 28.8252 63.6553 28.3506ZM71.293 33.1758C70.6309 33.1758 70.0303 33.0645 69.4912 32.8418C68.958 32.6133 68.498 32.2939 68.1113 31.8838C67.7305 31.4736 67.4375 30.9873 67.2324 30.4248C67.0273 29.8623 66.9248 29.2471 66.9248 28.5791V28.21C66.9248 27.4365 67.0391 26.748 67.2676 26.1445C67.4961 25.5352 67.8066 25.0195 68.1992 24.5977C68.5918 24.1758 69.0371 23.8564 69.5352 23.6396C70.0332 23.4229 70.5488 23.3145 71.082 23.3145C71.7617 23.3145 72.3477 23.4316 72.8398 23.666C73.3379 23.9004 73.7451 24.2285 74.0615 24.6504C74.3779 25.0664 74.6123 25.5586 74.7646 26.127C74.917 26.6895 74.9932 27.3047 74.9932 27.9727V28.7021H67.8916V27.375H73.3672V27.252C73.3438 26.8301 73.2559 26.4199 73.1035 26.0215C72.957 25.623 72.7227 25.2949 72.4004 25.0371C72.0781 24.7793 71.6387 24.6504 71.082 24.6504C70.7129 24.6504 70.373 24.7295 70.0625 24.8877C69.752 25.04 69.4854 25.2686 69.2627 25.5732C69.04 25.8779 68.8672 26.25 68.7441 26.6895C68.6211 27.1289 68.5596 27.6357 68.5596 28.21V28.5791C68.5596 29.0303 68.6211 29.4551 68.7441 29.8535C68.873 30.2461 69.0576 30.5918 69.2979 30.8906C69.5439 31.1895 69.8398 31.4238 70.1855 31.5938C70.5371 31.7637 70.9355 31.8486 71.3809 31.8486C71.9551 31.8486 72.4414 31.7314 72.8398 31.4971C73.2383 31.2627 73.5869 30.9492 73.8857 30.5566L74.8701 31.3389C74.665 31.6494 74.4043 31.9453 74.0879 32.2266C73.7715 32.5078 73.3818 32.7363 72.9189 32.9121C72.4619 33.0879 71.9199 33.1758 71.293 33.1758ZM82.499 31.374V26.4785C82.499 26.1035 82.4229 25.7783 82.2705 25.5029C82.124 25.2217 81.9014 25.0049 81.6025 24.8525C81.3037 24.7002 80.9346 24.624 80.4951 24.624C80.085 24.624 79.7246 24.6943 79.4141 24.835C79.1094 24.9756 78.8691 25.1602 78.6934 25.3887C78.5234 25.6172 78.4385 25.8633 78.4385 26.127H76.8125C76.8125 25.7871 76.9004 25.4502 77.0762 25.1162C77.252 24.7822 77.5039 24.4805 77.832 24.2109C78.166 23.9355 78.5645 23.7188 79.0273 23.5605C79.4961 23.3965 80.0176 23.3145 80.5918 23.3145C81.2832 23.3145 81.8926 23.4316 82.4199 23.666C82.9531 23.9004 83.3691 24.2549 83.668 24.7295C83.9727 25.1982 84.125 25.7871 84.125 26.4961V30.9258C84.125 31.2422 84.1514 31.5791 84.2041 31.9365C84.2627 32.2939 84.3477 32.6016 84.459 32.8594V33H82.7627C82.6807 32.8125 82.6162 32.5635 82.5693 32.2529C82.5225 31.9365 82.499 31.6436 82.499 31.374ZM82.7803 27.2344L82.7979 28.377H81.1543C80.6914 28.377 80.2783 28.415 79.915 28.4912C79.5518 28.5615 79.2471 28.6699 79.001 28.8164C78.7549 28.9629 78.5674 29.1475 78.4385 29.3701C78.3096 29.5869 78.2451 29.8418 78.2451 30.1348C78.2451 30.4336 78.3125 30.7061 78.4473 30.9521C78.582 31.1982 78.7842 31.3945 79.0537 31.541C79.3291 31.6816 79.666 31.752 80.0645 31.752C80.5625 31.752 81.002 31.6465 81.3828 31.4355C81.7637 31.2246 82.0654 30.9668 82.2881 30.6621C82.5166 30.3574 82.6396 30.0615 82.6572 29.7744L83.3516 30.5566C83.3105 30.8027 83.1992 31.0752 83.0176 31.374C82.8359 31.6729 82.5928 31.96 82.2881 32.2354C81.9893 32.5049 81.6318 32.7305 81.2158 32.9121C80.8057 33.0879 80.3428 33.1758 79.8271 33.1758C79.1826 33.1758 78.6172 33.0498 78.1309 32.7979C77.6504 32.5459 77.2754 32.209 77.0059 31.7871C76.7422 31.3594 76.6104 30.8818 76.6104 30.3545C76.6104 29.8447 76.71 29.3965 76.9092 29.0098C77.1084 28.6172 77.3955 28.292 77.7705 28.0342C78.1455 27.7705 78.5967 27.5713 79.124 27.4365C79.6514 27.3018 80.2402 27.2344 80.8906 27.2344H82.7803ZM88.3086 25.5205V33H86.6826V23.4902H88.2207L88.3086 25.5205ZM87.9219 27.8848L87.2451 27.8584C87.251 27.208 87.3477 26.6074 87.5352 26.0566C87.7227 25.5 87.9863 25.0166 88.3262 24.6064C88.666 24.1963 89.0703 23.8799 89.5391 23.6572C90.0137 23.4287 90.5381 23.3145 91.1123 23.3145C91.5811 23.3145 92.0029 23.3789 92.3779 23.5078C92.7529 23.6309 93.0723 23.8301 93.3359 24.1055C93.6055 24.3809 93.8105 24.7383 93.9512 25.1777C94.0918 25.6113 94.1621 26.1416 94.1621 26.7686V33H92.5273V26.751C92.5273 26.2529 92.4541 25.8545 92.3076 25.5557C92.1611 25.251 91.9473 25.0312 91.666 24.8965C91.3848 24.7559 91.0391 24.6855 90.6289 24.6855C90.2246 24.6855 89.8555 24.7705 89.5215 24.9404C89.1934 25.1104 88.9092 25.3447 88.6689 25.6436C88.4346 25.9424 88.25 26.2852 88.1152 26.6719C87.9863 27.0527 87.9219 27.457 87.9219 27.8848ZM103.716 31.6641V33H96.7988V31.6641H103.716ZM103.461 24.6416L97.168 33H96.1748V31.8047L102.424 23.4902H103.461V24.6416ZM102.74 23.4902V24.835H96.2451V23.4902H102.74ZM107.328 23.4902V33H105.693V23.4902H107.328ZM105.57 20.9678C105.57 20.7041 105.649 20.4814 105.808 20.2998C105.972 20.1182 106.212 20.0273 106.528 20.0273C106.839 20.0273 107.076 20.1182 107.24 20.2998C107.41 20.4814 107.495 20.7041 107.495 20.9678C107.495 21.2197 107.41 21.4365 107.24 21.6182C107.076 21.7939 106.839 21.8818 106.528 21.8818C106.212 21.8818 105.972 21.7939 105.808 21.6182C105.649 21.4365 105.57 21.2197 105.57 20.9678ZM115.933 31.1543V19.5H117.567V33H116.073L115.933 31.1543ZM109.534 28.3506V28.166C109.534 27.4395 109.622 26.7803 109.798 26.1885C109.979 25.5908 110.234 25.0781 110.562 24.6504C110.896 24.2227 111.292 23.8945 111.749 23.666C112.212 23.4316 112.728 23.3145 113.296 23.3145C113.894 23.3145 114.415 23.4199 114.86 23.6309C115.312 23.8359 115.692 24.1377 116.003 24.5361C116.319 24.9287 116.568 25.4033 116.75 25.96C116.932 26.5166 117.058 27.1465 117.128 27.8496V28.6582C117.063 29.3555 116.938 29.9824 116.75 30.5391C116.568 31.0957 116.319 31.5703 116.003 31.9629C115.692 32.3555 115.312 32.6572 114.86 32.8682C114.409 33.0732 113.882 33.1758 113.278 33.1758C112.722 33.1758 112.212 33.0557 111.749 32.8154C111.292 32.5752 110.896 32.2383 110.562 31.8047C110.234 31.3711 109.979 30.8613 109.798 30.2754C109.622 29.6836 109.534 29.042 109.534 28.3506ZM111.169 28.166V28.3506C111.169 28.8252 111.216 29.2705 111.31 29.6865C111.409 30.1025 111.562 30.4688 111.767 30.7852C111.972 31.1016 112.232 31.3506 112.549 31.5322C112.865 31.708 113.243 31.7959 113.683 31.7959C114.222 31.7959 114.664 31.6816 115.01 31.4531C115.361 31.2246 115.643 30.9229 115.854 30.5479C116.064 30.1729 116.229 29.7656 116.346 29.3262V27.208C116.275 26.8857 116.173 26.5752 116.038 26.2764C115.909 25.9717 115.739 25.7021 115.528 25.4678C115.323 25.2275 115.068 25.0371 114.764 24.8965C114.465 24.7559 114.11 24.6855 113.7 24.6855C113.255 24.6855 112.871 24.7793 112.549 24.9668C112.232 25.1484 111.972 25.4004 111.767 25.7227C111.562 26.0391 111.409 26.4082 111.31 26.8301C111.216 27.2461 111.169 27.6914 111.169 28.166ZM119.668 28.3506V28.1484C119.668 27.4629 119.768 26.8271 119.967 26.2412C120.166 25.6494 120.453 25.1367 120.828 24.7031C121.203 24.2637 121.657 23.9238 122.19 23.6836C122.724 23.4375 123.321 23.3145 123.983 23.3145C124.651 23.3145 125.252 23.4375 125.785 23.6836C126.324 23.9238 126.781 24.2637 127.156 24.7031C127.537 25.1367 127.827 25.6494 128.026 26.2412C128.226 26.8271 128.325 27.4629 128.325 28.1484V28.3506C128.325 29.0361 128.226 29.6719 128.026 30.2578C127.827 30.8438 127.537 31.3564 127.156 31.7959C126.781 32.2295 126.327 32.5693 125.794 32.8154C125.267 33.0557 124.669 33.1758 124.001 33.1758C123.333 33.1758 122.732 33.0557 122.199 32.8154C121.666 32.5693 121.209 32.2295 120.828 31.7959C120.453 31.3564 120.166 30.8438 119.967 30.2578C119.768 29.6719 119.668 29.0361 119.668 28.3506ZM121.294 28.1484V28.3506C121.294 28.8252 121.35 29.2734 121.461 29.6953C121.572 30.1113 121.739 30.4805 121.962 30.8027C122.19 31.125 122.475 31.3799 122.814 31.5674C123.154 31.749 123.55 31.8398 124.001 31.8398C124.446 31.8398 124.836 31.749 125.17 31.5674C125.51 31.3799 125.791 31.125 126.014 30.8027C126.236 30.4805 126.403 30.1113 126.515 29.6953C126.632 29.2734 126.69 28.8252 126.69 28.3506V28.1484C126.69 27.6797 126.632 27.2373 126.515 26.8213C126.403 26.3994 126.233 26.0273 126.005 25.7051C125.782 25.377 125.501 25.1191 125.161 24.9316C124.827 24.7441 124.435 24.6504 123.983 24.6504C123.538 24.6504 123.146 24.7441 122.806 24.9316C122.472 25.1191 122.19 25.377 121.962 25.7051C121.739 26.0273 121.572 26.3994 121.461 26.8213C121.35 27.2373 121.294 27.6797 121.294 28.1484Z" fill="#1C1C1C"/>
<path d="M341.25 22.75L333.75 30.25" stroke="#5F6368" stroke-width="2" stroke-linecap="round" stroke-linejoin="round"/>
<path d="M333.75 22.75L341.25 30.25" stroke="#5F6368" stroke-width="2" stroke-linecap="round" stroke-linejoin="round"/>
</g>
</g>
<defs>
<filter id="filter0_d_1007_7278" x="0" y="0" width="367" height="58" filterUnits="userSpaceOnUse" color-interpolation-filters="sRGB">
<feFlood flood-opacity="0" result="BackgroundImageFix"/>
<feColorMatrix in="SourceAlpha" type="matrix" values="0 0 0 0 0 0 0 0 0 0 0 0 0 0 0 0 0 0 127 0" result="hardAlpha"/>
<feOffset dx="2" dy="2"/>
<feGaussianBlur stdDeviation="2"/>
<feComposite in2="hardAlpha" operator="out"/>
<feColorMatrix type="matrix" values="0 0 0 0 0 0 0 0 0 0 0 0 0 0 0 0 0 0 0.15 0"/>
<feBlend mode="normal" in2="BackgroundImageFix" result="effect1_dropShadow_1007_7278"/>
<feBlend mode="normal" in="SourceGraphic" in2="effect1_dropShadow_1007_7278" result="shape"/>
</filter>
<clipPath id="clip0_1007_7278">
<rect x="2" y="2" width="359" height="50" rx="5" fill="white"/>
</clipPath>
</defs>
</svg>
