<svg width="67" height="65" viewBox="0 0 67 65" fill="none" xmlns="http://www.w3.org/2000/svg">
<path d="M64.5068 23.181C61.4775 13.8503 54.3588 5.8743 45.2361 2.19564C32.0201 -3.13236 17.1188 1.54764 8.18146 12.865C-1.32521 24.9023 -3.33587 44.033 7.91746 55.6676C15.8268 63.8476 28.1108 65.981 39.0175 63.729C49.4721 61.5703 59.4735 55.097 63.8201 44.5756C66.7521 37.4836 66.7121 29.973 64.5068 23.181Z" fill="#9EC63D"/>
<g opacity="0.5">
<path d="M48.34 45.84C37.428 48.0893 25.152 45.964 17.2346 37.78C10.096 30.3933 8.28929 20.0133 10.3626 10.3226C9.51196 11.192 8.69729 12.112 7.93462 13.0866C-1.56004 25.1146 -3.57871 44.2453 7.66929 55.8826C15.588 64.0666 27.864 66.1933 38.7746 63.9426C49.2266 61.7826 59.2346 55.316 63.5746 44.7946C64.6013 42.332 65.2573 39.816 65.576 37.3013C60.7573 41.6773 54.6293 44.5453 48.34 45.84Z" fill="#9EC63D"/>
</g>
<g opacity="0.5">
<path d="M43.2137 10.8215C42.2417 7.83084 39.9617 5.27484 37.0364 4.09484C32.8004 2.38818 28.0244 3.88818 25.1604 7.51618C22.1137 11.3735 21.4684 17.5055 25.0751 21.2348C27.6111 23.8562 31.5484 24.5402 35.0431 23.8188C38.3951 23.1268 41.6004 21.0522 42.9937 17.6802C43.9337 15.4055 43.9204 12.9988 43.2137 10.8215Z" fill="#9EC63D"/>
</g>
<path d="M40.9131 30.0415C40.9131 33.3295 43.5784 35.9949 46.8664 35.9949C50.1544 35.9949 52.8198 33.3295 52.8198 30.0415C52.8198 26.7535 50.1544 24.0882 46.8664 24.0882C43.5784 24.0882 40.9131 26.7535 40.9131 30.0415Z" fill="#2E305B"/>
<path d="M25.4262 30.0415C25.4262 33.3295 22.7609 35.9949 19.4729 35.9949C16.1849 35.9949 13.5195 33.3295 13.5195 30.0415C13.5195 26.7535 16.1849 24.0882 19.4729 24.0882C22.7609 24.0882 25.4262 26.7535 25.4262 30.0415Z" fill="#2E305B"/>
<path d="M24.4608 37.5534C24.4608 39.6561 20.3542 41.3601 15.2888 41.3601C10.2235 41.3601 6.11816 39.6561 6.11816 37.5534C6.11816 35.4508 10.2235 33.7468 15.2888 33.7468C20.3542 33.7468 24.4608 35.4508 24.4608 37.5534Z" fill="#FF9893"/>
<path d="M41.8779 37.5534C41.8779 39.6561 45.9846 41.3601 51.0499 41.3601C56.1153 41.3601 60.2206 39.6561 60.2206 37.5534C60.2206 35.4508 56.1153 33.7468 51.0499 33.7468C45.9846 33.7468 41.8779 35.4508 41.8779 37.5534Z" fill="#FF9893"/>
<path d="M54.5288 34.1912C54.5288 35.4446 55.5461 36.4619 56.7995 36.4619C58.0541 36.4619 59.0701 35.4446 59.0701 34.1912C59.0701 32.9366 58.0541 31.9206 56.7995 31.9206C55.5461 31.9206 54.5288 32.9366 54.5288 34.1912Z" fill="white"/>
<path d="M9.77881 34.1912C9.77881 35.4446 10.7961 36.4619 12.0495 36.4619C13.3041 36.4619 14.3201 35.4446 14.3201 34.1912C14.3201 32.9366 13.3041 31.9206 12.0495 31.9206C10.7961 31.9206 9.77881 32.9366 9.77881 34.1912Z" fill="white"/>
<path d="M33.0066 34.9142C37.0013 35.0355 40.1533 38.3849 40.0333 42.3795C40.008 43.1862 39.3346 43.8209 38.5266 43.7969C37.7186 43.7729 37.0853 43.0982 37.108 42.2902C37.1813 39.9075 35.3026 37.9102 32.9186 37.8382C30.5346 37.7675 28.5373 39.6462 28.4666 42.0302C28.4413 42.8369 27.768 43.4715 26.96 43.4475C26.152 43.4235 25.5186 42.7489 25.5413 41.9422C25.6626 37.9462 29.012 34.7942 33.0066 34.9142Z" fill="#2E305B"/>
<path d="M14.1639 25.8531C14.1639 25.8531 19.4843 22.018 20.6076 21.2304C21.922 20.3092 23.194 22.3871 21.8929 23.2988C20.8926 24.0002 19.8989 24.8751 18.8695 25.708H21.3598C22.9995 25.708 23.0017 28.1045 21.3598 28.1045H19.4574C20.5561 28.5966 21.647 29.1014 22.6686 29.7312C24.0334 30.5735 22.7592 32.6493 21.3833 31.7997C18.9958 30.3275 16.2339 29.5094 13.861 28.0424C12.9121 27.4567 13.12 26.199 14.1639 25.8531Z" fill="#2E305B"/>
<path d="M52.342 25.8531C52.342 25.8531 47.0216 22.018 45.8983 21.2304C44.5839 20.3092 43.3119 22.3871 44.6129 23.2988C45.6133 24.0002 46.6069 24.8751 47.6364 25.708H45.1461C43.5064 25.708 43.5041 28.1045 45.1461 28.1045H47.0484C45.9497 28.5966 44.8588 29.1014 43.8372 29.7312C42.4725 30.5735 43.7467 32.6493 45.1226 31.7997C47.51 30.3275 50.2719 29.5094 52.6449 28.0424C53.5938 27.4567 53.3859 26.199 52.342 25.8531Z" fill="#2E305B"/>
</svg>
