<?xml version="1.0" encoding="UTF-8"?>
<!-- Generator: Adobe Illustrator 26.0.3, SVG Export Plug-In . SVG Version: 6.00 Build 0)  -->
<svg xmlns="http://www.w3.org/2000/svg" xmlns:xlink="http://www.w3.org/1999/xlink" version="1.1" id="Capa_1" x="0px" y="0px" viewBox="0 0 512.229 512.229" style="enable-background:new 0 0 512.229 512.229;" xml:space="preserve" width="512" height="512">
<g>
	<path d="M438.292,258.48l-32.319-52.412c-2.003-3.249-5.546-5.227-9.363-5.227H22v22h368.47l32.319,52.412   c2.003,3.249,5.546,5.227,9.363,5.227h57.526c-0.445-7.383-1.385-14.734-2.775-22H438.292z"/>
	<g>
		<path d="M303.36,258.48h-36.274c-6.075,0-11,4.925-11,11s4.925,11,11,11h36.274C317.942,279.905,317.956,259.061,303.36,258.48z"/>
		<path d="M490.889,202.721l-21.304-41.863c-14.093-27.694-42.152-44.898-73.226-44.898H11c-6.075,0-11,4.925-11,11v228.004    c0,6.075,4.925,11,11,11h44.635c11.47,40.421,68.56,40.395,80.014,0h200.465c11.47,40.421,68.56,40.395,80.014,0h84.86    c6.075,0,11-4.925,11-11C511.554,301.613,517.26,252.125,490.889,202.721z M95.643,374.461c-10.751,0-19.499-8.747-19.499-19.498    c1.071-25.867,37.93-25.86,38.997,0C115.141,365.715,106.394,374.461,95.643,374.461z M376.122,374.461    c-10.751,0-19.499-8.747-19.499-19.498c1.071-25.867,37.93-25.86,38.997,0C395.62,365.715,386.873,374.461,376.122,374.461z     M489.988,343.963h-73.86c-11.47-40.422-68.56-40.395-80.014,0H135.649c-11.47-40.422-68.56-40.395-80.014,0H22V280.48h177.785    c6.075,0,11-4.925,11-11s-4.925-11-11-11H22V137.959h74.331v62.882h22v-62.882h74.343v62.882h22v-62.882h74.343v62.882h22v-62.882    h74.343v62.882h11.251c3.816,0,7.36,1.978,9.363,5.227l1.386,2.247v-69.351c18.228,3.349,33.995,14.924,42.619,31.871    l21.304,41.863C494.116,255.642,489.781,297.595,489.988,343.963z"/>
	</g>
</g>















</svg>
