<svg width="26" height="27" viewBox="0 0 26 27" fill="none" xmlns="http://www.w3.org/2000/svg">
<path d="M3.25 11.4684C3.25 10.3591 4.14929 9.4598 5.25861 9.4598V9.4598C6.01942 9.4598 6.71492 9.02995 7.05517 8.34947L7.94444 6.57091C8.10811 6.24358 8.18994 6.07991 8.29061 5.94281C8.59732 5.52507 9.05421 5.2427 9.56501 5.15519C9.73265 5.12646 9.91563 5.12646 10.2816 5.12646H15.7184C16.0844 5.12646 16.2674 5.12646 16.435 5.15519C16.9458 5.2427 17.4027 5.52507 17.7094 5.94281C17.8101 6.07991 17.8919 6.24358 18.0556 6.57091L18.9448 8.34947C19.2851 9.02995 19.9806 9.4598 20.7414 9.4598V9.4598C21.8507 9.4598 22.75 10.3591 22.75 11.4684V16.8884C22.75 19.3025 22.75 20.5095 22.0955 21.3303C21.9554 21.5059 21.7961 21.6652 21.6205 21.8053C20.7997 22.4598 19.5927 22.4598 17.1786 22.4598H8.82143C6.40731 22.4598 5.20025 22.4598 4.37953 21.8053C4.2039 21.6652 4.04456 21.5059 3.90451 21.3303C3.25 20.5095 3.25 19.3025 3.25 16.8884V11.4684Z" stroke="black"/>
<path d="M16.8332 14.8765C16.8332 16.9936 15.1169 18.7099 12.9998 18.7099C10.8827 18.7099 9.1665 16.9936 9.1665 14.8765C9.1665 12.7595 10.8827 11.0432 12.9998 11.0432C15.1169 11.0432 16.8332 12.7595 16.8332 14.8765Z" stroke="black"/>
</svg>
