<svg width="84" height="84" viewBox="0 0 84 84" fill="none" xmlns="http://www.w3.org/2000/svg">
<g filter="url(#filter0_d_8_32)">
<rect x="12" y="8" width="60" height="60" rx="30" fill="#F5F5F5" shape-rendering="crispEdges"/>
<path d="M26 38C26 29.1634 33.1634 22 42 22V22C50.8366 22 58 29.1634 58 38V38C58 46.8366 50.8366 54 42 54H30.1739C29.0815 54 28.5353 54 28.0925 53.8594C27.1634 53.5646 26.4354 52.8366 26.1406 51.9075C26 51.4647 26 50.9185 26 49.8261V38Z" stroke="#333333" stroke-width="3"/>
<path d="M36 38L48 38" stroke="#333333" stroke-width="3" stroke-linecap="round" stroke-linejoin="round"/>
<path d="M42 32L42 44" stroke="#333333" stroke-width="3" stroke-linecap="round" stroke-linejoin="round"/>
</g>
<defs>
<filter id="filter0_d_8_32" x="0" y="0" width="84" height="84" filterUnits="userSpaceOnUse" color-interpolation-filters="sRGB">
<feFlood flood-opacity="0" result="BackgroundImageFix"/>
<feColorMatrix in="SourceAlpha" type="matrix" values="0 0 0 0 0 0 0 0 0 0 0 0 0 0 0 0 0 0 127 0" result="hardAlpha"/>
<feOffset dy="4"/>
<feGaussianBlur stdDeviation="6"/>
<feComposite in2="hardAlpha" operator="out"/>
<feColorMatrix type="matrix" values="0 0 0 0 0 0 0 0 0 0 0 0 0 0 0 0 0 0 0.25 0"/>
<feBlend mode="normal" in2="BackgroundImageFix" result="effect1_dropShadow_8_32"/>
<feBlend mode="normal" in="SourceGraphic" in2="effect1_dropShadow_8_32" result="shape"/>
</filter>
</defs>
</svg>
