<?xml version="1.0" encoding="UTF-8"?>
<!-- Generator: Adobe Illustrator 24.2.3, SVG Export Plug-In . SVG Version: 6.00 Build 0)  -->
<svg xmlns="http://www.w3.org/2000/svg" xmlns:xlink="http://www.w3.org/1999/xlink" version="1.1" id="Capa_1" x="0px" y="0px" viewBox="0 0 512 512" style="enable-background:new 0 0 512 512;" xml:space="preserve" width="512" height="512">
<g>
	<g>
		<path d="M99.877,424.173C44.805,424.173,0,379.368,0,324.296c5.486-132.5,194.288-132.462,199.755,0.001    C199.754,379.368,154.95,424.173,99.877,424.173z M99.877,246.419C56.936,246.419,22,281.355,22,324.296    c4.278,103.314,151.492,103.285,155.755-0.001C177.754,281.355,142.819,246.419,99.877,246.419z"/>
	</g>
	<g>
		<path d="M412.123,424.173c-55.072,0-99.877-44.805-99.877-99.877    c5.486-132.5,194.288-132.462,199.754,0.001C512,379.368,467.195,424.173,412.123,424.173z M412.123,246.419    c-42.941,0-77.877,34.936-77.877,77.877c4.278,103.314,151.492,103.284,155.754-0.001    C490,281.355,455.064,246.419,412.123,246.419z"/>
	</g>
	<g>
		<path d="M185.708,155.316h-72.707c-14.572-0.57-14.605-21.415,0-22c0,0,72.707,0,72.707,0    c6.075,0,11,4.925,11,11S191.783,155.316,185.708,155.316z"/>
	</g>
	<path d="M390.833,87.829h-51.19c-7.249-0.156-12.821,7.444-10.49,14.31c0,0,17.594,55.762,17.594,55.762l-159.968,33.327   l-21.138-36.209h-25.474l28.121,48.17L90.758,318.146c-2.274,3.372-2.502,7.724-0.593,11.314c1.91,3.592,5.645,5.836,9.712,5.836   h145.216v23.633l-16.165,3.984c-5.898,1.454-9.502,7.414-8.048,13.312c1.236,5.016,5.729,8.371,10.672,8.371   c0.872,0,1.757-0.104,2.641-0.322l50.042-12.333c14.016-4.044,9.054-24.285-5.264-21.361c0,0-11.878,2.927-11.878,2.927v-25.897   l90.368-136.332l44.196,136.408c1.859,5.833,8.232,8.942,13.855,7.074c5.779-1.873,8.946-8.076,7.074-13.855   c-12.366-38.194-56.932-175.195-67.94-211.076h36.186c18.18,0,32.971,14.791,32.971,32.971c0,6.075,4.925,11,11,11s11-4.925,11-11   C445.804,112.49,421.144,87.829,390.833,87.829z M180.882,223.86l55.45,89.437H120.564L180.882,223.86z M256.403,303.92   l-57.501-92.746l138.041-28.759L256.403,303.92z"/>
</g>















</svg>
