<svg width="24" height="25" viewBox="0 0 24 25" fill="none" xmlns="http://www.w3.org/2000/svg">
<path d="M3 11.7932C3 8.02198 3 6.13636 4.17157 4.96479C5.34315 3.79321 7.22876 3.79321 11 3.79321H13C16.7712 3.79321 18.6569 3.79321 19.8284 4.96479C21 6.13636 21 8.02198 21 11.7932V13.7932C21 17.5644 21 19.4501 19.8284 20.6216C18.6569 21.7932 16.7712 21.7932 13 21.7932H11C7.22876 21.7932 5.34315 21.7932 4.17157 20.6216C3 19.4501 3 17.5644 3 13.7932V11.7932Z" stroke="black"/>
<path fill-rule="evenodd" clip-rule="evenodd" d="M18.9976 15.0836L18.6544 14.7403L18.6385 14.7245C18.238 14.324 17.9149 14.0009 17.6314 13.7619C17.3394 13.5158 17.055 13.3285 16.7221 13.2281C16.2512 13.086 15.7488 13.086 15.2779 13.2281C14.945 13.3285 14.6606 13.5158 14.3686 13.7619C14.0851 14.0009 13.762 14.324 13.3615 14.7245L13.3456 14.7403C13.0459 15.0401 12.8458 15.2394 12.6832 15.3739C12.5218 15.5074 12.452 15.5291 12.4237 15.534C12.3029 15.5552 12.1785 15.5313 12.0742 15.4667C12.0498 15.4516 11.993 15.4056 11.8928 15.2217C11.7917 15.0364 11.68 14.7771 11.513 14.3874L11.4596 14.2628L11.4475 14.2347L11.4475 14.2347C11.0829 13.3839 10.7931 12.7076 10.5107 12.2058C10.2237 11.6958 9.90522 11.2916 9.44575 11.0612C9.03426 10.855 8.57382 10.7663 8.11515 10.805C7.603 10.8482 7.15716 11.1053 6.70134 11.4722C6.25273 11.8332 5.73245 12.3535 5.07799 13.008L5.07798 13.008L5.05634 13.0296L5 13.086V13.7931C5 14.0395 5.00007 14.2748 5.00044 14.4998L5.76344 13.7368C6.44443 13.0558 6.92686 12.5743 7.32835 12.2512C7.72756 11.9299 7.98255 11.8197 8.19924 11.8015C8.47444 11.7782 8.75071 11.8314 8.9976 11.9552C9.192 12.0527 9.38786 12.2496 9.63918 12.6962C9.89194 13.1453 10.1611 13.7715 10.5404 14.6567L10.5938 14.7813L10.6034 14.8037L10.6034 14.8037C10.7583 15.1651 10.8884 15.4686 11.0149 15.7005C11.1448 15.9387 11.3038 16.1659 11.5479 16.317C11.8608 16.5107 12.2341 16.5826 12.5966 16.519C12.8794 16.4694 13.1114 16.3174 13.3204 16.1446C13.524 15.9762 13.7575 15.7427 14.0355 15.4646L14.0527 15.4475C14.4728 15.0274 14.766 14.7348 15.013 14.5266C15.2553 14.3224 15.4185 14.2302 15.5667 14.1855C15.8493 14.1002 16.1507 14.1002 16.4333 14.1855C16.5815 14.2302 16.7447 14.3224 16.987 14.5266C17.234 14.7348 17.5272 15.0274 17.9473 15.4475L18.9755 16.4757C18.9887 16.0653 18.9948 15.6052 18.9976 15.0836Z" fill="#333333"/>
<circle cx="16.5" cy="8.29321" r="1.5" fill="#333333"/>
</svg>
