<?xml version="1.0" encoding="UTF-8"?>
<!-- Generator: Adobe Illustrator 24.2.3, SVG Export Plug-In . SVG Version: 6.00 Build 0)  -->
<svg xmlns="http://www.w3.org/2000/svg" xmlns:xlink="http://www.w3.org/1999/xlink" version="1.1" id="Capa_1" x="0px" y="0px" viewBox="0 0 512 512" style="enable-background:new 0 0 512 512;" xml:space="preserve" width="512" height="512">
<g>
	<g>
		<path style="fill:#33CCCC;" d="M254.714,265.873c-48.479,0-87.92-39.441-87.92-87.92s39.441-87.92,87.92-87.92    s87.92,39.441,87.92,87.92S303.194,265.873,254.714,265.873z M254.714,112.032c-36.349,0-65.92,29.572-65.92,65.92    s29.572,65.92,65.92,65.92s65.92-29.572,65.92-65.92S291.063,112.032,254.714,112.032z"/>
	</g>
	<g>
		<path d="M254.715,512c-0.013,0-0.026,0-0.039,0c-3.883-0.014-7.471-2.073-9.441-5.419L108.181,273.813l0,0    c-17.558-29.82-26.838-63.873-26.838-98.477v-0.679C81.343,78.351,159.694,0,256,0s174.657,78.351,174.657,174.657    c0,35.075-9.517,69.526-27.521,99.629l-138.981,232.36C262.168,509.968,258.582,512,254.715,512z M127.139,262.651    l127.649,216.795l129.467-216.453c15.964-26.69,24.402-57.237,24.402-88.336C408.657,90.482,340.176,22,256,22    S103.343,90.482,103.343,174.657v0.679C103.343,206.017,111.573,236.212,127.139,262.651L127.139,262.651z"/>
	</g>
</g>















</svg>
