<svg width="24" height="24" viewBox="0 0 24 24" fill="#f5f5f5" xmlns="http://www.w3.org/2000/svg">
<rect width="24" height="24" rx="5"/>
<path d="M10.5 17.25L9.79289 16.5429L9.08579 17.25L9.79289 17.9571L10.5 17.25ZM12.7929 13.5429L9.79289 16.5429L11.2071 17.9571L14.2071 14.9571L12.7929 13.5429ZM9.79289 17.9571L12.7929 20.9571L14.2071 19.5429L11.2071 16.5429L9.79289 17.9571Z" fill="#333333"/>
<path d="M16.5466 9.375C17.0074 10.1731 17.25 11.0784 17.25 12C17.25 12.9216 17.0074 13.8269 16.5466 14.625C16.0858 15.4231 15.4231 16.0858 14.625 16.5466C13.8269 17.0074 12.9216 17.25 12 17.25" stroke="#333333" stroke-width="2" stroke-linecap="round"/>
<path d="M13.5 6.75L14.2071 7.45711L14.9142 6.75L14.2071 6.04289L13.5 6.75ZM11.2071 10.4571L14.2071 7.45711L12.7929 6.04289L9.79289 9.04289L11.2071 10.4571ZM14.2071 6.04289L11.2071 3.04289L9.79289 4.45711L12.7929 7.45711L14.2071 6.04289Z" fill="#333333"/>
<path d="M7.45337 14.625C6.99258 13.8269 6.75 12.9216 6.75 12C6.75 11.0784 6.99258 10.1731 7.45337 9.375C7.91415 8.5769 8.5769 7.91415 9.375 7.45337C10.1731 6.99258 11.0784 6.75 12 6.75" stroke="#333333" stroke-width="2" stroke-linecap="round"/>
</svg>
