<?xml version="1.0" encoding="UTF-8"?>
<!-- Generator: Adobe Illustrator 26.0.3, SVG Export Plug-In . SVG Version: 6.00 Build 0)  -->
<svg xmlns="http://www.w3.org/2000/svg" xmlns:xlink="http://www.w3.org/1999/xlink" version="1.1" id="Capa_1" x="0px" y="0px" viewBox="0 0 512 512" style="enable-background:new 0 0 512 512;" xml:space="preserve" width="512" height="512">
<g>
	<g>
		<path style="fill:#33CACA;" d="M475.396,189.084l-97.586-68.807c-32.988-23.258-71.758-35.552-112.119-35.552H11.014    c-6.075,0-11,4.925-11,11s4.925,11,11,11H265.69c35.798,0,70.184,10.904,99.441,31.532l97.586,68.807    C479.801,219.109,490,238.779,490,259.682c0,35.5-28.881,64.381-64.38,64.381H11.014c-14.391,0.486-14.787,21.329,0,22    c0,0,414.606,0,414.606,0C509.613,345.531,543.758,237.878,475.396,189.084z"/>
		<path style="fill:#33CACA;" d="M11,45.729h59.309c14.576-0.572,14.602-21.417,0-22c0,0-59.309,0-59.309,0c-6.075,0-11,4.925-11,11    S4.925,45.729,11,45.729z"/>
	</g>
	<g>
		<path d="M501,466.271h-41.98v-38.995H501c6.075,0,11-4.925,11-11s-4.925-11-11-11H11.005c-14.434,0.512-14.745,21.346,0,22    c0,0,41.984,0,41.984,0v38.995H11.005c-6.075,0-11,4.925-11,11s4.925,11,11,11H501C515.399,487.775,515.778,466.938,501,466.271z     M437.02,466.271H267.004v-38.995H437.02V466.271z M74.989,427.276h170.015v38.995H74.989V427.276z"/>
		<path d="M11.003,227.045c-14.554,0.566-14.629,21.398,0,22c0,0,153.511,0,153.511,0c68.489-2.814,68.566-100.478,0-103.326    c0,0-153.511,0-153.511,0c-6.075,0-11,4.925-11,11s4.925,11,11,11h40.853v59.326H11.003z M194.178,197.382    c0,16.356-13.307,29.663-29.664,29.663h-19.498v-59.326h19.498C180.871,167.719,194.178,181.026,194.178,197.382z M73.855,167.719    h49.161v59.326H73.855V167.719z"/>
		<path d="M287.61,346.063c-6.019,28.35,16.632,56.125,45.661,55.799c29.024,0.327,51.686-27.451,45.66-55.799h-22.877    c6.681,15.652-5.709,34.142-22.784,33.799c-17.072,0.345-29.469-18.149-22.784-33.799H287.61z"/>
		<path d="M41.671,346.063c-6.02,28.35,16.632,56.125,45.661,55.799c29.024,0.327,51.685-27.451,45.66-55.799h-22.876    c6.68,15.651-5.709,34.143-22.784,33.799c-17.072,0.345-29.469-18.149-22.784-33.799H41.671z"/>
		<path d="M307.657,243.876c2.01,3.216,5.535,5.17,9.328,5.17h172.12c-1.31-7.799-4.04-15.253-8.007-22H323.082l-37.078-59.326    h120.913l-31.202-22H266.157c-8.516-0.101-13.932,9.658-9.328,16.83C256.829,162.549,307.657,243.876,307.657,243.876z"/>
	</g>
</g>















</svg>
